<svg width="60" height="51" viewBox="0 0 60 51" fill="none" xmlns="http://www.w3.org/2000/svg">
<g clip-path="url(#clip0_1539_1748)">
<mask id="mask0_1539_1748" style="mask-type:luminance" maskUnits="userSpaceOnUse" x="21" y="5" width="13" height="13">
<path d="M33.2202 5.61468H21.9908V17.6451H33.2202V5.61468Z" fill="white"/>
</mask>
<g mask="url(#mask0_1539_1748)">
<mask id="mask1_1539_1748" style="mask-type:luminance" maskUnits="userSpaceOnUse" x="21" y="5" width="13" height="13">
<path d="M33.2202 5.61468H21.9908V17.6451H33.2202V5.61468Z" fill="white"/>
</mask>
<g mask="url(#mask1_1539_1748)">
<path fill-rule="evenodd" clip-rule="evenodd" d="M32.6705 8.21703L27.5463 10.3626L22.5135 8.21989C22.2104 8.09236 21.9908 8.25528 21.9908 8.58208V14.8136C21.9908 15.1399 22.2104 15.5105 22.5135 15.6382L27.0092 17.5496C27.3116 17.6765 27.7954 17.6765 28.0981 17.5518L32.6736 15.6355C32.9765 15.5105 33.2202 15.1399 33.2202 14.8136V8.58208C33.2202 8.25528 32.9735 8.09236 32.6705 8.21703Z" fill="white"/>
<path fill-rule="evenodd" clip-rule="evenodd" d="M27.5491 9.47224L29.926 8.44828C29.9465 8.32077 29.9558 8.18982 29.9558 8.05697C29.9558 6.70945 28.8938 5.61468 27.5821 5.61468C26.2699 5.61468 25.2083 6.70945 25.2083 8.05697C25.2083 8.1961 25.2198 8.33275 25.2395 8.46275L27.5491 9.47224Z" fill="white"/>
</g>
</g>
<mask id="mask2_1539_1748" style="mask-type:luminance" maskUnits="userSpaceOnUse" x="0" y="8" width="60" height="35">
<path d="M59.0711 8.30505H0V42.695H59.0711V8.30505Z" fill="white"/>
</mask>
<g mask="url(#mask2_1539_1748)">
<mask id="mask3_1539_1748" style="mask-type:luminance" maskUnits="userSpaceOnUse" x="0" y="8" width="60" height="35">
<path d="M59.0711 8.30505H0V42.695H59.0711V8.30505Z" fill="white"/>
</mask>
<g mask="url(#mask3_1539_1748)">
<mask id="mask4_1539_1748" style="mask-type:luminance" maskUnits="userSpaceOnUse" x="0" y="8" width="60" height="35">
<path d="M59.0711 8.30505H0V42.695H59.0711V8.30505Z" fill="white"/>
</mask>
<g mask="url(#mask4_1539_1748)">
<mask id="mask5_1539_1748" style="mask-type:luminance" maskUnits="userSpaceOnUse" x="0" y="8" width="60" height="35">
<path d="M59.0405 8.3794H0.00109863V42.668H59.0405V8.3794Z" fill="white"/>
</mask>
<g mask="url(#mask5_1539_1748)">
<mask id="mask6_1539_1748" style="mask-type:luminance" maskUnits="userSpaceOnUse" x="0" y="8" width="60" height="35">
<path d="M59.0405 8.3794H0.00109863V42.668H59.0405V8.3794Z" fill="white"/>
</mask>
<g mask="url(#mask6_1539_1748)">
<mask id="mask7_1539_1748" style="mask-type:luminance" maskUnits="userSpaceOnUse" x="0" y="8" width="60" height="35">
<path d="M59.0405 8.3794H0.00109863V42.668H59.0405V8.3794Z" fill="white"/>
</mask>
<g mask="url(#mask7_1539_1748)">
<path d="M20.2465 34.0496V39.8838H2.71191V13.1111H9.95429V34.0496H20.2465ZM24.1494 19.1383H31.3113V39.8838H24.1494V19.1383ZM31.5929 13.9883C31.5929 16.0751 30.3214 17.1186 27.7786 17.1186C25.2357 17.1186 23.9642 16.0751 23.9642 13.9883C23.9642 12.8885 24.2674 12.081 24.8736 11.5661C25.4745 11.051 26.4374 10.7935 27.7624 10.7935C29.0822 10.7935 30.0505 11.0591 30.6674 11.5902C31.2845 12.1159 31.5929 12.9153 31.5929 13.9883ZM49.047 29.3904C49.047 26.0643 48.1511 24.4012 46.3593 24.4012C45.356 24.4012 44.6211 24.7472 44.1544 25.4392C43.6877 26.1313 43.4543 27.223 43.4543 28.7144V29.7364C43.4543 31.4317 43.6877 32.6468 44.1544 33.3817C44.6211 34.122 45.3776 34.4921 46.4236 34.4921C47.2766 34.4921 47.9258 34.0577 48.3711 33.1886C48.8217 32.3249 49.047 31.0588 49.047 29.3904ZM43.2048 21.8181H43.4543C44.7955 19.7848 46.6114 18.7682 48.9022 18.7682C51.193 18.7682 53.0035 19.7177 54.3339 21.6169C55.6643 23.516 56.3296 26.1394 56.3296 29.4869C56.3296 32.8399 55.6564 35.4712 54.3098 37.3811C52.9955 39.2963 51.1393 40.2539 48.7412 40.2539C47.3464 40.2539 46.1313 39.9481 45.0959 39.3366C44.6078 39.0254 44.0606 38.5291 43.4543 37.8478H43.0278L41.8851 39.8838H36.2924V11.4051H43.4543V17.8348C43.4543 18.5911 43.3711 19.9189 43.2048 21.8181Z" fill="white"/>
</g>
</g>
</g>
</g>
</g>
</g>
<mask id="mask8_1539_1748" style="mask-type:luminance" maskUnits="userSpaceOnUse" x="1" y="0" width="59" height="51">
<path d="M59.4221 0H2.69043V51H59.4221V0Z" fill="white"/>
<mask id="mask9_1539_1748" style="mask-type:luminance" maskUnits="userSpaceOnUse" x="0" y="8" width="60" height="35">
<path d="M59.4221 8.30508H0.350952V42.695H59.4221V8.30508Z" fill="white"/>
</mask>
<g mask="url(#mask9_1539_1748)">
<mask id="mask10_1539_1748" style="mask-type:luminance" maskUnits="userSpaceOnUse" x="0" y="8" width="60" height="35">
<path d="M59.4221 8.30508H0.350952V42.695H59.4221V8.30508Z" fill="white"/>
</mask>
<g mask="url(#mask10_1539_1748)">
<mask id="mask11_1539_1748" style="mask-type:luminance" maskUnits="userSpaceOnUse" x="0" y="8" width="60" height="35">
<path d="M59.4221 8.30508H0.350952V42.695H59.4221V8.30508Z" fill="white"/>
</mask>
<g mask="url(#mask11_1539_1748)">
<mask id="mask12_1539_1748" style="mask-type:luminance" maskUnits="userSpaceOnUse" x="0" y="8" width="60" height="35">
<path d="M59.3915 8.37945H0.352051V42.6681H59.3915V8.37945Z" fill="white"/>
</mask>
<g mask="url(#mask12_1539_1748)">
<mask id="mask13_1539_1748" style="mask-type:luminance" maskUnits="userSpaceOnUse" x="0" y="8" width="60" height="35">
<path d="M59.3915 8.37945H0.352051V42.6681H59.3915V8.37945Z" fill="white"/>
</mask>
<g mask="url(#mask13_1539_1748)">
<mask id="mask14_1539_1748" style="mask-type:luminance" maskUnits="userSpaceOnUse" x="0" y="8" width="60" height="35">
<path d="M59.3915 8.37945H0.352051V42.6681H59.3915V8.37945Z" fill="white"/>
</mask>
<g mask="url(#mask14_1539_1748)">
<path d="M20.5974 34.0496V39.8838H3.06287V13.1111H10.3052V34.0496H20.5974ZM24.5003 19.1385H31.6622V39.8838H24.5003V19.1385ZM31.9439 13.9883C31.9439 16.0752 30.6724 17.1186 28.1295 17.1186C25.5867 17.1186 24.3152 16.0752 24.3152 13.9883C24.3152 12.8885 24.6184 12.0812 25.2245 11.5661C25.8254 11.0511 26.7883 10.7936 28.1134 10.7936C29.4332 10.7936 30.4015 11.0591 31.0184 11.5903C31.6354 12.116 31.9439 12.9153 31.9439 13.9883ZM49.3979 29.3904C49.3979 26.0643 48.502 24.4012 46.7103 24.4012C45.707 24.4012 44.972 24.7472 44.5053 25.4393C44.0386 26.1313 43.8052 27.223 43.8052 28.7144V29.7364C43.8052 31.4317 44.0386 32.6468 44.5053 33.3817C44.972 34.1221 45.7285 34.4923 46.7746 34.4923C47.6276 34.4923 48.2768 34.0577 48.7221 33.1886C49.1726 32.3249 49.3979 31.0588 49.3979 29.3904ZM43.5557 21.8181H43.8052C45.1465 19.7849 46.9623 18.7682 49.2531 18.7682C51.5439 18.7682 53.3544 19.7178 54.6849 21.6169C56.0153 23.516 56.6805 26.1394 56.6805 29.487C56.6805 32.8399 56.0073 35.4713 54.6608 37.3811C53.3465 39.2963 51.4902 40.254 49.0922 40.254C47.6974 40.254 46.4823 39.9482 45.4468 39.3366C44.9587 39.0254 44.4115 38.5292 43.8052 37.8479H43.3788L42.2361 39.8838H36.6434V11.4052H43.8052V17.8348C43.8052 18.5913 43.7221 19.919 43.5557 21.8181Z" fill="black"/>
<path fill-rule="evenodd" clip-rule="evenodd" d="M28.1134 12.8054C26.9696 12.8054 26.5938 13.0422 26.5338 13.0936L26.5272 13.0992L26.5269 13.0994C26.5177 13.1066 26.327 13.255 26.327 13.9883C26.327 14.602 26.4939 14.7389 26.5443 14.7802L26.5451 14.7809C26.6706 14.8839 27.0823 15.1068 28.1296 15.1068C29.1769 15.1068 29.5886 14.8839 29.7141 14.7809L29.7149 14.7802C29.7652 14.7389 29.9322 14.602 29.9322 13.9883C29.9322 13.3074 29.7508 13.1531 29.7145 13.1222L29.7137 13.1215L29.7059 13.1148C29.6216 13.0423 29.2319 12.8054 28.1134 12.8054ZM23.9185 10.0359C25.06 9.05949 26.6085 8.78181 28.1134 8.78181C29.6329 8.78181 31.1781 9.07535 32.3272 10.0624C33.5241 11.0846 33.9557 12.5304 33.9557 13.9883C33.9557 15.25 33.6116 16.4823 32.7413 17.4403C33.3021 17.7973 33.674 18.4244 33.674 19.1385V39.8838C33.674 40.9948 32.7733 41.8955 31.6623 41.8955H24.5004C23.5587 41.8955 22.768 41.2484 22.5489 40.3746C22.3298 41.2484 21.5392 41.8955 20.5975 41.8955H3.06292C1.95185 41.8955 1.05115 40.9948 1.05115 39.8838V13.1111C1.05115 12 1.95185 11.0993 3.06292 11.0993H10.3053C11.4164 11.0993 12.3171 12 12.3171 13.1111V32.0379H20.5975C21.467 32.0379 22.2077 32.5895 22.4886 33.3619V19.1385C22.4886 18.3983 22.8883 17.7515 23.4836 17.4022C22.6385 16.4497 22.3035 15.2333 22.3035 13.9883C22.3035 12.5358 22.7118 11.0634 23.9185 10.0359ZM34.6317 11.4052C34.6317 10.2941 35.5324 9.39339 36.6434 9.39339H43.8053C44.9164 9.39339 45.8171 10.2941 45.8171 11.4052V17.4604C46.8538 16.9969 48.0027 16.7565 49.2532 16.7565C52.2097 16.7565 54.6311 18.034 56.3326 20.4626L56.3326 20.4626C57.9839 22.8198 58.6923 25.9018 58.6923 29.487C58.6923 33.0764 57.9764 36.1639 56.3122 38.5301C54.6087 41.0058 52.1234 42.2657 49.0922 42.2657C47.3959 42.2657 45.8157 41.891 44.4237 41.0687C44.4041 41.0571 44.3847 41.0452 44.3655 41.033C44.2524 40.9609 44.1398 40.8838 44.0277 40.8021L43.9904 40.8684C43.6344 41.5028 42.9636 41.8955 42.2361 41.8955H36.6434C35.5324 41.8955 34.6317 40.9948 34.6317 39.8838V11.4052ZM38.6552 13.4169V37.872H41.0583L41.6245 36.8632C41.9805 36.2288 42.6513 35.8361 43.3788 35.8361H43.8053C43.9756 35.8361 44.1436 35.8577 44.3055 35.8993C43.7217 35.5692 43.2082 35.0955 42.8054 34.4575C42.0183 33.2162 41.7935 31.5108 41.7935 29.7364V28.7144C41.7935 27.0974 42.0308 25.5107 42.8374 24.3145M38.6552 13.4169H41.7935H38.6552ZM5.07469 15.1229V37.872H18.5857V36.0614H10.3053C9.19422 36.0614 8.29352 35.1607 8.29352 34.0496V15.1229H5.07469ZM26.5122 21.1502V37.872H29.6505V21.1502H26.5122ZM46.2636 26.4808C46.2335 26.495 46.2098 26.5099 46.1733 26.5641L46.1733 26.5642C46.0465 26.7521 45.8171 27.3487 45.8171 28.7144V29.7364C45.8171 31.3512 46.0586 32.0749 46.2036 32.3033L46.2072 32.3089C46.2496 32.3762 46.2777 32.3933 46.3071 32.4076C46.3515 32.4294 46.4856 32.4805 46.7746 32.4805C46.7831 32.4805 46.7903 32.4803 46.7963 32.48C46.8212 32.4531 46.8698 32.392 46.9317 32.2712C46.9339 32.2669 46.9362 32.2625 46.9385 32.2581C47.1679 31.8184 47.3862 30.9356 47.3862 29.3904C47.3862 27.8422 47.1665 26.9953 46.9549 26.6026C46.8902 26.4825 46.8435 26.437 46.8291 26.425C46.8149 26.4205 46.7794 26.4129 46.7103 26.4129C46.4369 26.4129 46.3076 26.4601 46.2636 26.4808ZM46.8366 26.4281C46.8366 26.4283 46.8344 26.4276 46.8305 26.4255C46.8347 26.4269 46.8366 26.4279 46.8366 26.4281ZM46.8273 26.4235C46.8253 26.4223 46.8244 26.4216 46.8244 26.4215C46.8244 26.4215 46.8254 26.4221 46.8273 26.4235Z" fill="black"/>
</g>
</g>
</g>
</g>
</g>
</g>
</mask>
<g mask="url(#mask8_1539_1748)">
<path d="M41.2913 40.1607V51.2873H4.86987V0.228119H19.9131V40.1607H41.2913Z" fill="#FFE0DB"/>
</g>
</g>
<defs>
<clipPath id="clip0_1539_1748">
<rect width="59.422" height="51" fill="white"/>
</clipPath>
</defs>
</svg>
